<svg width="40" height="40" viewBox="0 0 40 40" fill="none" xmlns="http://www.w3.org/2000/svg">
<rect width="40" height="40" rx="5" fill="url(#paint0_linear_4_3)"/>
<g filter="url(#filter0_d_4_3)">
<rect x="6.39999" y="8.80005" width="26.6667" height="22.4" rx="5" fill="white"/>
</g>
<path d="M14.9505 24.4142L19.3668 19.3036C19.536 19.1078 19.7609 19.0001 20.0001 19.0001C20.2392 19.0001 20.4641 19.1078 20.6332 19.3036L25.0496 24.4142C25.7247 25.1953 26.8188 25.1953 27.4938 24.4142C28.1687 23.6331 28.1687 22.3668 27.4938 21.5858L23.0774 16.4753C22.2554 15.524 21.1625 15 20 15C18.8375 15 17.7446 15.524 16.9225 16.4752L12.5062 21.5858C11.8313 22.3668 11.8313 23.6331 12.5062 24.4142C13.1812 25.1953 14.2756 25.1953 14.9505 24.4142Z" fill="#FE613E"/>
<defs>
<filter id="filter0_d_4_3" x="2.39999" y="8.80005" width="34.6667" height="30.4" filterUnits="userSpaceOnUse" color-interpolation-filters="sRGB">
<feFlood flood-opacity="0" result="BackgroundImageFix"/>
<feColorMatrix in="SourceAlpha" type="matrix" values="0 0 0 0 0 0 0 0 0 0 0 0 0 0 0 0 0 0 127 0" result="hardAlpha"/>
<feOffset dy="4"/>
<feGaussianBlur stdDeviation="2"/>
<feComposite in2="hardAlpha" operator="out"/>
<feColorMatrix type="matrix" values="0 0 0 0 0 0 0 0 0 0 0 0 0 0 0 0 0 0 0.25 0"/>
<feBlend mode="normal" in2="BackgroundImageFix" result="effect1_dropShadow_4_3"/>
<feBlend mode="normal" in="SourceGraphic" in2="effect1_dropShadow_4_3" result="shape"/>
</filter>
<linearGradient id="paint0_linear_4_3" x1="0" y1="20" x2="40" y2="20" gradientUnits="userSpaceOnUse">
<stop stop-color="#F0776F"/>
<stop offset="0.9999" stop-color="#FC432A"/>
</linearGradient>
</defs>
</svg>
