<svg width="40" height="40" viewBox="0 0 40 40" fill="none" xmlns="http://www.w3.org/2000/svg">
<rect width="40" height="40" rx="5" fill="url(#paint0_linear_4_42)"/>
<rect x="6.66666" y="6.66669" width="26.6667" height="26.6667" rx="5" fill="white"/>
<rect x="9.33334" y="9.33331" width="8" height="2" rx="1" fill="#7B7B7B"/>
<rect x="9.33334" y="28.2667" width="8" height="2.66667" rx="1.33333" fill="#E86565"/>
<rect x="22.6667" y="28.2667" width="8" height="2.66667" rx="1.33333" fill="#8DF17D"/>
<rect x="27.3592" y="19.3333" width="3.30749" height="1.33333" rx="0.666667" fill="#D9D9D9"/>
<rect x="9.33334" y="19.3333" width="16.5375" height="1.33333" rx="0.666667" fill="#D9D9D9"/>
<rect x="9.33334" y="21.2" width="6.61499" height="1.33333" rx="0.666667" fill="#D9D9D9"/>
<rect x="17.4367" y="21.2" width="13.23" height="1.33333" rx="0.666667" fill="#D9D9D9"/>
<rect x="9.33334" y="15.3333" width="6.61499" height="1.33333" rx="0.666667" fill="#D9D9D9"/>
<rect x="17.4367" y="15.3333" width="13.23" height="1.33333" rx="0.666667" fill="#D9D9D9"/>
<rect x="9.33334" y="17.4667" width="9.92248" height="1.33333" rx="0.666667" fill="#D9D9D9"/>
<rect x="20.7442" y="17.4667" width="9.92248" height="1.33333" rx="0.666667" fill="#D9D9D9"/>
<defs>
<linearGradient id="paint0_linear_4_42" x1="0" y1="20" x2="40" y2="20" gradientUnits="userSpaceOnUse">
<stop stop-color="#7FD0EA"/>
<stop offset="1" stop-color="#2F91AF"/>
</linearGradient>
</defs>
</svg>
