<svg width="40" height="40" viewBox="0 0 40 40" fill="none" xmlns="http://www.w3.org/2000/svg">
<rect width="40" height="40" rx="5" fill="url(#paint0_linear_4_23)"/>
<path d="M11.8 8.66669C11.3066 8.66674 10.9067 9.07765 10.9067 9.58455V12.3381H8.22666C7.73331 12.3382 7.33338 12.7491 7.33333 13.256V27.9418C7.33338 28.4487 7.73331 28.8596 8.22666 28.8597H10.0133V31.6133C10.013 32.3833 10.8799 32.8115 11.465 32.3304L15.6874 28.8597H29.6667C30.16 28.8596 30.5599 28.4487 30.56 27.9418V27.024H33.24C33.7333 27.0239 34.1333 26.613 34.1333 26.1061V9.58455C34.1333 9.07765 33.7333 8.66674 33.24 8.66669H11.8ZM12.6933 10.5024H32.3467V25.1882H30.56V13.256C30.5599 12.7491 30.16 12.3382 29.6667 12.3381H12.6933V10.5024ZM9.11999 14.1739H28.7733V27.024H15.3733C15.1704 27.0238 14.9735 27.0946 14.815 27.2248L11.8 29.7023V27.9418C11.7999 27.4349 11.4 27.024 10.9067 27.024H9.11999V14.1739Z" fill="#FD8900"/>
<defs>
<linearGradient id="paint0_linear_4_23" x1="0" y1="20" x2="40" y2="20" gradientUnits="userSpaceOnUse">
<stop stop-color="#FFF4B9"/>
<stop offset="0.9999" stop-color="#FFD464"/>
</linearGradient>
</defs>
</svg>
