<svg width="300" height="300" viewBox="0 0 300 300" fill="none" xmlns="http://www.w3.org/2000/svg">
<rect width="300" height="300" rx="70" fill="url(#paint0_linear_2_6)"/>
<g filter="url(#filter0_d_2_6)">
<rect x="50" y="50" width="200" height="200" rx="20" fill="white"/>
</g>
<rect x="70" y="70" width="60" height="15" rx="5" fill="#7B7B7B"/>
<rect x="70" y="212" width="60" height="20" rx="5" fill="#E86565"/>
<rect x="170" y="212" width="60" height="20" rx="5" fill="#8DF17D"/>
<rect x="205.194" y="145" width="24.8062" height="10" rx="5" fill="#D9D9D9"/>
<rect x="70" y="145" width="124.031" height="10" rx="5" fill="#D9D9D9"/>
<rect x="70" y="159" width="49.6124" height="10" rx="5" fill="#D9D9D9"/>
<rect x="130.775" y="159" width="99.2248" height="10" rx="5" fill="#D9D9D9"/>
<rect x="70" y="115" width="49.6124" height="10" rx="5" fill="#D9D9D9"/>
<rect x="130.775" y="115" width="99.2248" height="10" rx="5" fill="#D9D9D9"/>
<rect x="70" y="131" width="74.4186" height="10" rx="5" fill="#D9D9D9"/>
<rect x="155.581" y="131" width="74.4186" height="10" rx="5" fill="#D9D9D9"/>
<defs>
<filter id="filter0_d_2_6" x="46" y="50" width="208" height="208" filterUnits="userSpaceOnUse" color-interpolation-filters="sRGB">
<feFlood flood-opacity="0" result="BackgroundImageFix"/>
<feColorMatrix in="SourceAlpha" type="matrix" values="0 0 0 0 0 0 0 0 0 0 0 0 0 0 0 0 0 0 127 0" result="hardAlpha"/>
<feOffset dy="4"/>
<feGaussianBlur stdDeviation="2"/>
<feComposite in2="hardAlpha" operator="out"/>
<feColorMatrix type="matrix" values="0 0 0 0 0 0 0 0 0 0 0 0 0 0 0 0 0 0 0.25 0"/>
<feBlend mode="normal" in2="BackgroundImageFix" result="effect1_dropShadow_2_6"/>
<feBlend mode="normal" in="SourceGraphic" in2="effect1_dropShadow_2_6" result="shape"/>
</filter>
<linearGradient id="paint0_linear_2_6" x1="0" y1="150" x2="300" y2="150" gradientUnits="userSpaceOnUse">
<stop stop-color="#7FD0EA"/>
<stop offset="1" stop-color="#2F91AF"/>
</linearGradient>
</defs>
</svg>
