<svg width="300" height="300" viewBox="0 0 300 300" fill="none" xmlns="http://www.w3.org/2000/svg">
<rect width="300" height="300" rx="70" fill="url(#paint0_linear_2_86)"/>
<path d="M88.5 65C84.7998 65.0004 81.8004 68.0822 81.8 71.884V92.5359H61.7C57.9998 92.5363 55.0004 95.6181 55 99.4199V209.564C55.0004 213.365 57.9998 216.447 61.7 216.448H75.1V237.1C75.0977 242.874 81.5993 246.086 85.9875 242.478L117.655 216.448H222.5C226.2 216.447 229.2 213.365 229.2 209.564V202.68H249.3C253 202.679 256 199.597 256 195.796V71.884C256 68.0822 253 65.0004 249.3 65H88.5ZM95.2 78.768H242.6V188.912H229.2V99.4199C229.2 95.6181 226.2 92.5363 222.5 92.5359H95.2V78.768ZM68.4 106.304H215.8V202.68H115.3C113.778 202.678 112.301 203.21 111.112 204.185L88.5 222.767V209.564C88.4996 205.762 85.5002 202.68 81.8 202.68H68.4V106.304Z" fill="#FD8900"/>
<defs>
<linearGradient id="paint0_linear_2_86" x1="0" y1="150" x2="300" y2="150" gradientUnits="userSpaceOnUse">
<stop stop-color="#FFF4B9"/>
<stop offset="0.9999" stop-color="#FFD464"/>
</linearGradient>
</defs>
</svg>
